<svg class="" width="512" height="512" enable-background="new 0 0 512 512" version="1.1" viewBox="0 0 512 512" xml:space="preserve" xmlns="http://www.w3.org/2000/svg"><g transform="matrix(.95944 0 0 .95944 10.383 10.383)" fill="#000"><path class="" d="m344.9 260.08c4.143 0 7.5-3.358 7.5-7.5v-54.163c0-3.126-1.939-5.925-4.866-7.022l-88.895-33.335c-1.699-0.637-3.568-0.637-5.268 0l-88.895 33.335c-2.927 1.098-4.866 3.896-4.866 7.022v24.08c0 4.142 3.357 7.5 7.5 7.5s7.5-3.358 7.5-7.5v-13.257l73.895 27.71v99.139l-73.895-27.71v-50.798c0-4.142-3.357-7.5-7.5-7.5s-7.5 3.358-7.5 7.5v55.996c0 3.126 1.939 5.925 4.866 7.022l88.895 33.335c1e-3 -6e-3 3e-3 -0.014 4e-3 -0.021 0.845 0.317 1.733 0.498 2.631 0.498 0.887 0 1.779-0.157 2.633-0.478l88.895-33.335c2.927-1.098 4.866-3.896 4.866-7.022v-26.038c0-4.142-3.357-7.5-7.5-7.5s-7.5 3.358-7.5 7.5v20.84l-73.895 27.711v-99.139l73.895-27.71v43.34c0 4.143 3.357 7.5 7.5 7.5zm-88.895-36.337-67.534-25.325 67.534-25.326 67.534 25.326z" data-original="#000000"/><path class="" d="m248.5 74.86v53.86c0 4.142 3.357 7.5 7.5 7.5s7.5-3.358 7.5-7.5v-53.86c17.265-3.489 30.305-18.777 30.305-37.055 0-20.846-16.959-37.805-37.805-37.805s-37.805 16.959-37.805 37.805c0 18.278 13.04 33.566 30.305 37.055zm7.5-59.86c12.574 0 22.805 10.23 22.805 22.805s-10.231 22.805-22.805 22.805-22.805-10.23-22.805-22.805 10.231-22.805 22.805-22.805z" data-original="#000000"/><path class="" d="m400.29 348.34c-11.623 0-22.365 3.837-31.029 10.311l-17.953-17.953c-2.93-2.929-7.678-2.929-10.607 0s-2.929 7.678 0 10.606l17.954 17.953c-6.474 8.664-10.311 19.407-10.311 31.029 0 28.644 23.304 51.947 51.947 51.947s51.947-23.303 51.947-51.947-23.304-51.946-51.948-51.946zm0 88.894c-20.373 0-36.947-16.575-36.947-36.947s16.574-36.947 36.947-36.947 36.947 16.575 36.947 36.947-16.574 36.947-36.947 36.947z" data-original="#000000"/><path class="" d="m111.71 163.66c11.623 0 22.365-3.837 31.029-10.311l17.953 17.953c1.465 1.464 3.385 2.197 5.304 2.197s3.839-0.732 5.304-2.197c2.929-2.929 2.929-7.678 0-10.606l-17.953-17.953c6.474-8.664 10.311-19.407 10.311-31.029 0-28.644-23.304-51.947-51.947-51.947s-51.947 23.303-51.947 51.947 23.302 51.946 51.946 51.946zm0-88.894c20.373 0 36.947 16.575 36.947 36.947s-16.574 36.947-36.947 36.947-36.947-16.575-36.947-36.947 16.574-36.947 36.947-36.947z" data-original="#000000"/><path class="" d="m263.5 437.14v-53.86c0-4.142-3.357-7.5-7.5-7.5s-7.5 3.358-7.5 7.5v53.86c-17.265 3.489-30.305 18.777-30.305 37.055 0 20.846 16.959 37.805 37.805 37.805s37.805-16.959 37.805-37.805c0-18.278-13.04-33.566-30.305-37.055zm-7.5 59.86c-12.574 0-22.805-10.23-22.805-22.805s10.231-22.805 22.805-22.805 22.805 10.23 22.805 22.805-10.231 22.805-22.805 22.805z" data-original="#000000"/><path class="" d="m474.2 218.2c-18.278 0-33.566 13.04-37.055 30.305h-53.86c-4.143 0-7.5 3.358-7.5 7.5s3.357 7.5 7.5 7.5h53.86c3.489 17.265 18.777 30.305 37.055 30.305 20.846 0 37.805-16.959 37.805-37.805s-16.959-37.805-37.805-37.805zm0 60.61c-12.574 0-22.805-10.23-22.805-22.805s10.23-22.805 22.805-22.805 22.805 10.23 22.805 22.805-10.23 22.805-22.805 22.805z" data-original="#000000"/><path class="" d="m74.86 263.5h53.86c4.143 0 7.5-3.358 7.5-7.5s-3.357-7.5-7.5-7.5h-53.86c-3.489-17.265-18.777-30.305-37.055-30.305-20.846 0-37.805 16.959-37.805 37.805s16.959 37.805 37.805 37.805c18.278 0 33.566-13.04 37.055-30.305zm-37.055 15.305c-12.575 0-22.805-10.23-22.805-22.805s10.23-22.805 22.805-22.805 22.804 10.23 22.804 22.805-10.23 22.805-22.804 22.805z" data-original="#000000"/><path class="" d="m346 173.5c1.919 0 3.839-0.732 5.304-2.197l17.953-17.953c8.664 6.474 19.407 10.311 31.029 10.311 28.644 0 51.947-23.303 51.947-51.947s-23.304-51.947-51.947-51.947-51.947 23.303-51.947 51.947c0 11.623 3.837 22.365 10.311 31.029l-17.954 17.953c-2.929 2.929-2.929 7.678 0 10.606 1.465 1.466 3.385 2.198 5.304 2.198zm54.286-98.733c20.373 0 36.947 16.575 36.947 36.947s-16.574 36.947-36.947 36.947-36.947-16.575-36.947-36.947 16.574-36.947 36.947-36.947z" data-original="#000000"/><path class="" d="m160.7 340.7-17.953 17.953c-8.664-6.474-19.407-10.311-31.029-10.311-28.644 0-51.947 23.303-51.947 51.947s23.304 51.947 51.947 51.947 51.947-23.303 51.947-51.947c0-11.623-3.837-22.365-10.311-31.029l17.953-17.953c2.929-2.929 2.929-7.678 0-10.606-2.929-2.93-7.677-2.93-10.607-1e-3zm-48.982 96.536c-20.373 0-36.947-16.575-36.947-36.947s16.574-36.947 36.947-36.947 36.947 16.575 36.947 36.947-16.574 36.947-36.947 36.947z" data-original="#000000"/></g></svg>
